<svg width="48" height="45" viewBox="0 0 48 45" fill="none" xmlns="http://www.w3.org/2000/svg">
<path d="M41.0003 26.8C44.1403 25.34 46.1003 22.16 46.0003 18.7C45.9203 13.48 41.6403 9.33998 36.4403 9.41998C36.3203 9.41998 36.2003 9.41998 36.0803 9.41998C33.8003 4.81998 29.1003 1.93998 23.9803 1.95998V1.93998C17.0003 1.83998 11.1403 7.17998 10.6203 14.14C6.76034 13.28 2.96034 15.72 2.12034 19.56C2.00034 20 1.96034 20.48 1.94034 20.94C1.76034 24.04 3.88034 26.82 6.94034 27.504" stroke="currentColor" stroke-width="2" stroke-linecap="round" stroke-linejoin="round"/>
<path d="M14.0002 36C12.9394 36 11.922 36.4214 11.1718 37.1716C10.4217 37.9217 10.0002 38.9391 10.0002 40C10.0002 41.0609 10.4217 42.0783 11.1718 42.8284C11.922 43.5786 12.9394 44 14.0002 44C15.0611 44 16.0785 43.5786 16.8287 42.8284C17.5788 42.0783 18.0002 41.0609 18.0002 40C18.0002 38.9391 17.5788 37.9217 16.8287 37.1716C16.0785 36.4214 15.0611 36 14.0002 36Z" stroke="currentColor" stroke-width="2" stroke-linecap="round" stroke-linejoin="round"/>
<path d="M30.0002 32C28.9394 32 27.922 32.4214 27.1718 33.1716C26.4217 33.9217 26.0002 34.9391 26.0002 36C26.0002 37.0609 26.4217 38.0783 27.1718 38.8284C27.922 39.5786 28.9394 40 30.0002 40C31.0611 40 32.0785 39.5786 32.8287 38.8284C33.5788 38.0783 34.0002 37.0609 34.0002 36C34.0002 34.9391 33.5788 33.9217 32.8287 33.1716C32.0785 32.4214 31.0611 32 30.0002 32Z" stroke="currentColor" stroke-width="2" stroke-linecap="round" stroke-linejoin="round"/>
<path d="M34.0002 36V22.41C34.0002 21.29 33.1002 20.39 32.0002 20.39C31.8602 20.37 31.7402 20.39 31.6202 20.41L19.6202 22.66C18.6602 22.82 17.9802 23.66 17.9802 24.62V39.96" stroke="currentColor" stroke-width="2" stroke-linecap="round" stroke-linejoin="round"/>
</svg>


