<svg width="48" height="41" viewBox="0 0 48 41" fill="none" xmlns="http://www.w3.org/2000/svg">
<path d="M41.0003 26.8C44.1403 25.34 46.1003 22.16 46.0003 18.7C45.9203 13.48 41.6403 9.33998 36.4403 9.41998C36.3203 9.41998 36.2003 9.41998 36.0803 9.41998C33.8003 4.81998 29.1003 1.93998 23.9803 1.95998V1.93998C17.0003 1.83998 11.1403 7.17998 10.6203 14.14C6.76034 13.28 2.96034 15.72 2.12034 19.56C2.00034 20 1.96034 20.48 1.94034 20.94C1.76034 24.04 3.88034 26.82 6.94034 27.504" stroke="#4B5563" stroke-width="2" stroke-linecap="round" stroke-linejoin="round"/>
<path d="M34.0002 36V22.41C34.0002 21.29 33.1002 20.39 32.0002 20.39C31.8602 20.37 31.7402 20.39 31.6202 20.41L19.6202 22.66C18.6602 22.82 17.9802 23.66 17.9802 24.62V39.96" stroke="#4B5563" stroke-width="2" stroke-linecap="round" stroke-linejoin="round"/>
</svg>

